<?xml version="1.0" encoding="UTF-8"?>
<svg version="1.1" xmlns="http://www.w3.org/2000/svg" width="328" height="312" viewBox="105 264 328 312">
<path d="M0 0 C1.57156655 3.1431331 0.11705576 5.365464 -0.9375 8.625 C-1.31777344 9.81351562 -1.69804687 11.00203125 -2.08984375 12.2265625 C-2.39019531 13.14179688 -2.69054687 14.05703125 -3 15 C0.44980157 15.48230236 3.5736796 15.7114192 7 15 C9.35937891 12.63543564 10.7027746 10.05872094 12 7 C12.33 7.66 12.66 8.32 13 9 C12.06421005 11.35981813 11.06652192 13.69631264 10 16 C13.35458155 16.76522801 13.35458155 16.76522801 17 17 C18.81104764 15.94032404 18.81104764 15.94032404 20 14 C20.66 13.195625 21.32 12.39125 22 11.5625 C23.69313226 9.39317429 25.36208466 7.21118571 27 5 C26.17812739 9.38332057 25.09845718 13.67940177 24 18 C27.98814523 18.8749455 27.98814523 18.8749455 32 19 C34.82986002 16.39354998 36.44605585 13.49637435 38 10 C38.33 10 38.66 10 39 10 C38.73958333 11.98567708 38.47916667 13.97135417 38.21875 15.95703125 C37.946767 18.15471706 37.946767 18.15471706 38 21 C38.99 20.505 38.99 20.505 40 20 C40 20.66 40 21.32 40 22 C50.82718657 24.59858881 50.82718657 24.59858881 61.28125 22.33984375 C63.83187679 20.03890181 65.93709974 17.74331064 68 15 C68.73476563 14.03900391 68.73476563 14.03900391 69.484375 13.05859375 C70.73109118 11.34377188 70.73109118 11.34377188 72 9 C73 12 73 12 72.328125 13.90234375 C71.97234375 14.57394531 71.6165625 15.24554688 71.25 15.9375 C70.90453125 16.60652344 70.5590625 17.27554687 70.203125 17.96484375 C68.93927118 20.10272634 67.52466151 22.04159857 66 24 C75.95680136 25.62680022 84.97707335 24.81333594 93.6875 19.375 C98.63129407 15.78196934 102.80576711 11.42163106 107 7 C107.99667224 5.99668328 108.99527195 4.99524949 110 4 C108.50946587 10.45898125 106.06553076 16.27900816 103.125 22.1875 C102.79757812 22.85201172 102.47015625 23.51652344 102.1328125 24.20117188 C100.08780972 28.22327696 97.77372743 31.84079446 95.08789062 35.46411133 C93.9008594 37.05593836 93.9008594 37.05593836 92.8984375 39.21875 C91.79155889 41.41325717 90.39367153 42.80083958 88.625 44.5 C88.03976562 45.0671875 87.45453125 45.634375 86.8515625 46.21875 C86.24054688 46.8065625 85.62953125 47.394375 85 48 C84.36835938 48.67804688 83.73671875 49.35609375 83.0859375 50.0546875 C80.83670688 52.15228459 78.76032115 53.28591563 76 54.625 C69.21090592 58.17988327 63.71057627 62.95715254 58 68 C59.55847656 67.94779297 59.55847656 67.94779297 61.1484375 67.89453125 C69.27866165 67.70727081 76.33053441 67.90271582 84 71 C84 71.33 84 71.66 84 72 C82.87078125 72.11214844 82.87078125 72.11214844 81.71875 72.2265625 C71.62957682 73.47546501 62.11408323 76.44295838 53 81 C54.08539063 81.18175781 55.17078125 81.36351562 56.2890625 81.55078125 C57.73446137 81.80419534 59.17976918 82.05812925 60.625 82.3125 C61.69427734 82.48942383 61.69427734 82.48942383 62.78515625 82.66992188 C67.30767333 83.47899603 70.94872301 84.71876043 75 87 C75 87.33 75 87.66 75 88 C74.33057373 87.98952637 73.66114746 87.97905273 72.97143555 87.96826172 C69.87683007 87.92615099 66.78228522 87.90050147 63.6875 87.875 C62.63498047 87.85824219 61.58246094 87.84148437 60.49804688 87.82421875 C53.44218197 87.78079804 46.89012527 88.4776333 40 90 C40.845625 90.17015625 41.69125 90.3403125 42.5625 90.515625 C49.29656209 91.95426554 55.00906504 93.59338992 61 97 C57.777854 98.07404867 57.15316285 97.94880815 54.046875 97.07421875 C48.42935827 95.72214843 43.00231375 95.74198777 37.25 95.8125 C36.23550781 95.81314453 35.22101563 95.81378906 34.17578125 95.81445312 C29.62704873 95.84135102 25.45278096 95.99777438 21 97 C22.03898438 97.15855469 23.07796875 97.31710937 24.1484375 97.48046875 C32.32380938 98.8154035 40.01932664 100.20375504 47 105 C47.33 105.66 47.66 106.32 48 107 C46.88625 106.67 45.7725 106.34 44.625 106 C32.89929758 103.42516171 20.3432667 104.2633945 9 108 C9.85207031 108.27972656 10.70414063 108.55945313 11.58203125 108.84765625 C14.97317137 109.99095492 18.33429851 111.18735171 21.6875 112.4375 C23.36392578 113.05431641 23.36392578 113.05431641 25.07421875 113.68359375 C27.72817117 114.87769517 29.17492008 115.78797735 31 118 C21 116 21 116 18.5625 115.4453125 C10.63928757 114.06841278 2.6405674 114.60295925 -5 117 C-3.62328125 117.23783203 -3.62328125 117.23783203 -2.21875 117.48046875 C5.27456166 118.9051425 10.85130143 120.44996306 17 125 C16.67 125.66 16.34 126.32 16 127 C15.42636719 126.52304687 14.85273438 126.04609375 14.26171875 125.5546875 C8.12722941 121.33788826 -0.18418531 122.95278272 -7.11279297 124.17382812 C-19.89145922 126.77065033 -32.36307277 131.10473295 -44.78637695 135.01611328 C-49.86554283 136.57115685 -54.18317342 137.15949227 -59.5 137.125 C-60.21269043 137.1237915 -60.92538086 137.12258301 -61.65966797 137.12133789 C-65.84754356 137.09080032 -69.95603512 136.87012843 -74.125 136.4375 C-101.1778378 133.84062246 -138.07977017 140.40274641 -162 154 C-162.79543213 154.80026611 -162.79543213 154.80026611 -163.60693359 155.61669922 C-165 157 -165 157 -167 157 C-166.75781738 156.24565674 -166.75781738 156.24565674 -166.51074219 155.47607422 C-164.73411549 149.76097479 -163.21243588 144.00049032 -161.765625 138.1953125 C-150.6240513 93.53040731 -136.85827896 52.71826554 -95.23828125 27.30419922 C-83.71831759 20.59175966 -71.9188349 15.36082127 -58.86425781 12.53198242 C-54.10516084 11.60780966 -54.10516084 11.60780966 -51 8 C-51 9.32 -51 10.64 -51 12 C-49.515 11.7525 -49.515 11.7525 -48 11.5 C-43.97267058 10.91525483 -40.06525377 10.92867976 -36 11 C-36 9.02 -36 7.04 -36 5 C-35.67 5 -35.34 5 -35 5 C-35 6.98 -35 8.96 -35 11 C-34.34 11 -33.68 11 -33 11 C-32.34 10.34 -31.68 9.68 -31 9 C-31 9.99 -31 10.98 -31 12 C-27.88667752 11.33131686 -27.88667752 11.33131686 -26.8125 8.9375 C-26.4103125 7.9784375 -26.4103125 7.9784375 -26 7 C-25.67 7.66 -25.34 8.32 -25 9 C-25.33 9.99 -25.66 10.98 -26 12 C-23.2160817 10.60804085 -23.02101003 8.84424221 -22 6 C-21.67 6 -21.34 6 -21 6 C-21.33 8.31 -21.66 10.62 -22 13 C-19.03 13 -16.06 13 -13 13 C-12.01 9.7 -11.02 6.4 -10 3 C-9.67 3 -9.34 3 -9 3 C-9.875 10.625 -9.875 10.625 -11 14 C-9.35 14 -7.7 14 -6 14 C-5.72736328 13.11248047 -5.72736328 13.11248047 -5.44921875 12.20703125 C-4.04332943 7.787492 -2.62472819 3.87459875 0 0 Z M63 56 C62.67 56.66 62.34 57.32 62 58 C62.99 57.67 63.98 57.34 65 57 C64.34 56.67 63.68 56.34 63 56 Z M-79 130 C-75 131 -75 131 -75 131 Z " fill="#040403" transform="translate(309,413)"/>
<path d="M0 0 C7.68934397 9.15711049 9.19611191 20.2143411 9.1875 31.75 C9.18814453 32.63655273 9.18878906 33.52310547 9.18945312 34.43652344 C9.14019242 40.52917664 8.57586598 46.09050256 7 52 C7.66 52 8.32 52 9 52 C13.34817243 40.25993445 14.2870208 29.29433281 14.125 16.8125 C14.1149393 15.46550153 14.10581897 14.11849569 14.09765625 12.77148438 C14.07430604 9.51412979 14.0415577 6.25716451 14 3 C20.32493677 3.66578282 26.3771115 4.91441123 32.5625 6.375 C34.52710389 6.82656567 36.49194861 7.27708481 38.45703125 7.7265625 C41.03510545 8.31810842 43.61308256 8.90972214 46.18896484 9.51074219 C56.46043664 11.88484522 66.50161734 12.65125648 77 13 C72.44233326 18.86462765 67.62091663 22.62587026 61.38671875 26.60546875 C60.45890091 27.21078934 59.53108307 27.81610992 58.57514954 28.43977356 C55.61910011 30.36591517 52.6539098 32.27736133 49.6875 34.1875 C45.81325083 36.69698247 41.94294766 39.2124858 38.07421875 41.73046875 C37.13069046 42.34354385 36.18716217 42.95661896 35.21504211 43.58827209 C27.28157508 48.76496249 19.53597969 54.17683958 11.83784485 59.69509888 C-2.45018257 69.83984153 -17.22235642 79.55687136 -34 85 C-34.97195313 85.31839844 -35.94390625 85.63679687 -36.9453125 85.96484375 C-52.95842252 90.59797025 -70.47139321 87.83498339 -86.42651367 84.06860352 C-101.83649959 80.44355011 -117.67603595 77.38233057 -132 86 C-134.21721706 87.55667991 -136.05100329 89.10514209 -138 91 C-138.66 90.67 -139.32 90.34 -140 90 C-139.67837891 89.54786133 -139.35675781 89.09572266 -139.02539062 88.62988281 C-131.30688455 77.7882172 -131.30688455 77.7882172 -123.875 66.75 C-116.18285049 55.09133498 -107.70058869 44.00914788 -97 35 C-96.11183594 34.22398437 -95.22367188 33.44796875 -94.30859375 32.6484375 C-84.59942837 24.29674531 -74.18345725 17.60395957 -62.9375 11.5 C-62.31834717 11.16145996 -61.69919434 10.82291992 -61.0612793 10.47412109 C-57.73183836 8.71439742 -54.73943966 7.50895965 -51 7 C-51.433125 7.57363281 -51.86625 8.14726562 -52.3125 8.73828125 C-58.14485667 17.63532534 -58.29995808 26.70606206 -57 37 C-55.55152199 42.97784575 -52.77271301 47.06251177 -48 51 C-43.68042227 53.50268318 -39.8939455 53.87699503 -35 53 C-27.2286994 49.57407818 -23.45049702 44.10954698 -19.8984375 36.703125 C-17.46221319 29.3732675 -17.89360715 20.27317922 -21.1875 13.3125 C-24.38943915 7.87371322 -28.03175652 5.04625491 -34 3 C-25.46303637 -1.94584795 -8.91663191 -4.86361741 0 0 Z " fill="#A0CF7B" transform="translate(295,456)"/>
<path d="M0 0 C3.25997734 2.4484775 6.47609659 4.9492394 9.67480469 7.47705078 C11.17140625 8.65267578 11.17140625 8.65267578 12.69824219 9.85205078 C19.09170802 14.98147895 25.13162007 20.46687912 31.12792969 26.04785156 C32.7157395 27.51487155 34.3178311 28.96465664 35.92480469 30.41064453 C36.72543335 31.13405029 36.72543335 31.13405029 37.54223633 31.87207031 C39.02096125 33.2070846 40.50210134 34.53942233 41.98339844 35.87158203 C44.80274175 38.60090277 47.21795219 41.42270603 49.67480469 44.47705078 C46.56480414 43.03122762 43.92271542 41.27939916 41.15917969 39.25439453 C35.65306106 35.35674829 29.88626077 32.18039959 23.92480469 29.03955078 C21.79001704 27.90018597 19.65589771 26.75956806 17.52246094 25.61767578 C16.00096436 24.80459961 16.00096436 24.80459961 14.44873047 23.97509766 C11.04913305 22.13915946 7.70319521 20.23018613 4.36230469 18.28955078 C-1.84947278 14.69325856 -8.18948481 11.37074062 -14.55834961 8.06201172 C-18.78579154 5.85474424 -22.90816713 3.57683639 -26.95019531 1.03955078 C-31.19716298 -1.5998499 -35.51629993 -3.19876063 -40.32519531 -4.52294922 C-40.32519531 -5.18294922 -40.32519531 -5.84294922 -40.32519531 -6.52294922 C-42.30519531 -6.52294922 -44.28519531 -6.52294922 -46.32519531 -6.52294922 C-45.83019531 -6.99732422 -45.33519531 -7.47169922 -44.82519531 -7.96044922 C-43.20977334 -9.2821862 -43.20977334 -9.2821862 -43.32519531 -10.52294922 C-48.93519531 -9.53294922 -54.54519531 -8.54294922 -60.32519531 -7.52294922 C-55.32519531 -12.52294922 -55.32519531 -12.52294922 -53.32519531 -13.52294922 C-54.16824219 -13.36697266 -55.01128906 -13.21099609 -55.87988281 -13.05029297 C-57.5234375 -12.75832031 -57.5234375 -12.75832031 -59.20019531 -12.46044922 C-60.29074219 -12.26322266 -61.38128906 -12.06599609 -62.50488281 -11.86279297 C-65.32519531 -11.52294922 -65.32519531 -11.52294922 -67.32519531 -12.52294922 C-69.59720295 -11.94363702 -71.84254384 -11.25898976 -74.07128906 -10.53076172 C-74.74961288 -10.3098436 -75.42793671 -10.08892548 -76.1268158 -9.86131287 C-78.34247475 -9.13418072 -80.55302593 -8.39307444 -82.76269531 -7.64794922 C-83.51472229 -7.3955246 -84.26674927 -7.14309998 -85.04156494 -6.88302612 C-109.14917925 1.24893735 -130.3252811 12.65622312 -150.32519531 28.47705078 C-151.55882812 29.43998047 -151.55882812 29.43998047 -152.81738281 30.42236328 C-158.05713476 34.55724741 -163.145836 38.86085757 -168.22070312 43.19482422 C-172.23742432 46.60586799 -176.34903988 49.872828 -180.51269531 53.10205078 C-189.97491425 60.48860355 -198.50867418 68.57687033 -207.01269531 77.03955078 C-207.8211792 77.84328125 -208.62966309 78.64701172 -209.46264648 79.47509766 C-213.75574619 83.78011651 -217.88973219 88.16185317 -221.8527832 92.77270508 C-223.57887391 94.7706887 -225.39056927 96.67982579 -227.20019531 98.60205078 C-238.65639081 111.54003218 -247.05144173 128.10065806 -252.32519531 144.47705078 C-260.40164174 134.55946915 -263.73199276 121.73436224 -266.32519531 109.47705078 C-265.66519531 109.47705078 -265.00519531 109.47705078 -264.32519531 109.47705078 C-263.99519531 110.13705078 -263.66519531 110.79705078 -263.32519531 111.47705078 C-263.32519531 106.19705078 -263.32519531 100.91705078 -263.32519531 95.47705078 C-261.32519531 98.47705078 -261.32519531 98.47705078 -260.32519531 101.47705078 C-260.23431641 100.048125 -260.23431641 100.048125 -260.14160156 98.59033203 C-260.0578125 97.33607422 -259.97402344 96.08181641 -259.88769531 94.78955078 C-259.80648437 93.54818359 -259.72527344 92.30681641 -259.64160156 91.02783203 C-259.38028214 88.09524741 -258.97721152 85.34263461 -258.32519531 82.47705078 C-257.66519531 82.80705078 -257.00519531 83.13705078 -256.32519531 83.47705078 C-255.69238281 85.54345703 -255.69238281 85.54345703 -255.20019531 88.03955078 C-255.03261719 88.86583984 -254.86503906 89.69212891 -254.69238281 90.54345703 C-254.57121094 91.18154297 -254.45003906 91.81962891 -254.32519531 92.47705078 C-253.96804443 91.94337891 -253.61089355 91.40970703 -253.24291992 90.85986328 C-251.58858477 88.39501851 -249.92570682 85.93604918 -248.26269531 83.47705078 C-247.70130859 82.63787109 -247.13992187 81.79869141 -246.56152344 80.93408203 C-236.96357281 66.78396053 -224.59244033 56.98377193 -211.32519531 46.47705078 C-210.73399902 46.0071875 -210.14280273 45.53732422 -209.53369141 45.05322266 C-205.4839914 41.83543333 -201.41387015 38.64516303 -197.32519531 35.47705078 C-196.7215918 35.00831543 -196.11798828 34.53958008 -195.49609375 34.05664062 C-136.77428314 -11.34444528 -67.3394858 -49.48647163 0 0 Z " fill="#000000" transform="translate(377.3251953125,319.52294921875)"/>
<path d="M0 0 C0 0.66 0 1.32 0 2 C0.99 2.495 0.99 2.495 2 3 C1.34 3.33 0.68 3.66 0 4 C1.546875 4.7115625 1.546875 4.7115625 3.125 5.4375 C8.63968136 8.55351914 12.02878057 14.08634172 14 20 C15.01594912 30.37811319 14.16806287 38.24054091 8 47 C4.44337968 50.92375532 0.26005534 54.41784726 -5.078125 55.37109375 C-11.2189941 55.55885414 -15.40742057 54.15519091 -20 50 C-21.7532354 47.71611175 -22.76685207 45.65601093 -24 43 C-24.53173828 41.94039063 -24.53173828 41.94039063 -25.07421875 40.859375 C-26.38403689 36.81386075 -26.42432852 32.98010401 -26.4375 28.75 C-26.44136719 27.90332764 -26.44523437 27.05665527 -26.44921875 26.18432617 C-26.3309429 19.79558205 -25.20806834 15.00459556 -21 10 C-25.21777578 10 -28.24415931 11.9887392 -31.875 13.9375 C-32.63441895 14.34355469 -33.39383789 14.74960937 -34.17626953 15.16796875 C-46.65317191 21.96354155 -58.63642372 30.34871137 -68.5625 40.5625 C-69.366875 41.366875 -70.17125 42.17125 -71 43 C-71.66 43 -72.32 43 -73 43 C-73.27070313 43.59425781 -73.54140625 44.18851562 -73.8203125 44.80078125 C-74.98956846 46.98055312 -76.17458183 48.40671381 -77.875 50.1875 C-86.39556609 59.70420742 -93.28693442 70.81850603 -100.30859375 81.4609375 C-102.46477728 84.69770261 -104.7126742 87.85492703 -107 91 C-106.46632812 90.61328125 -105.93265625 90.2265625 -105.3828125 89.828125 C-92.52936246 80.84405265 -80.79787271 79.05963432 -65.41064453 81.59033203 C-59.03053984 82.79536387 -52.6927551 84.16126177 -46.359375 85.58984375 C-20.38539626 91.4373887 2.12733353 86.68601138 24.53271484 72.66674805 C28.26728049 70.26534907 31.91809049 67.75222495 35.56298828 65.21801758 C45.15828706 58.54966464 54.83731085 52.00854424 64.52832031 45.48022461 C67.36324963 43.57041588 70.19731649 41.65933288 73.03125 39.74804688 C90.48804356 27.97934275 90.48804356 27.97934275 99.1524353 22.2535553 C102.05648328 20.32738561 104.91356884 18.35211721 107.73657227 16.31005859 C110.59907335 14.283801 113.05511952 12.91851626 116.3125 11.6875 C117.15425781 11.36136719 117.99601563 11.03523438 118.86328125 10.69921875 C121 10 121 10 123 10 C123 10.66 123 11.32 123 12 C121.37824382 13.12986322 119.69953157 14.17840313 118 15.1875 C112.8528694 18.3570138 108.39167747 21.8599946 104 26 C105.55847656 25.94779297 105.55847656 25.94779297 107.1484375 25.89453125 C115.27866165 25.70727081 122.33053441 25.90271582 130 29 C130 29.33 130 29.66 130 30 C129.2471875 30.07476562 128.494375 30.14953125 127.71875 30.2265625 C117.62957682 31.47546501 108.11408323 34.44295838 99 39 C100.08539063 39.18175781 101.17078125 39.36351562 102.2890625 39.55078125 C103.73446137 39.80419534 105.17976918 40.05812925 106.625 40.3125 C107.69427734 40.48942383 107.69427734 40.48942383 108.78515625 40.66992188 C113.30767333 41.47899603 116.94872301 42.71876043 121 45 C121 45.33 121 45.66 121 46 C119.9958606 45.98428955 119.9958606 45.98428955 118.97143555 45.96826172 C115.87683007 45.92615099 112.78228522 45.90050147 109.6875 45.875 C108.1087207 45.84986328 108.1087207 45.84986328 106.49804688 45.82421875 C99.44218197 45.78079804 92.89012527 46.4776333 86 48 C86.845625 48.17015625 87.69125 48.3403125 88.5625 48.515625 C95.29656209 49.95426554 101.00906504 51.59338992 107 55 C103.777854 56.07404867 103.15316285 55.94880815 100.046875 55.07421875 C94.42935827 53.72214843 89.00231375 53.74198777 83.25 53.8125 C82.23550781 53.81314453 81.22101563 53.81378906 80.17578125 53.81445312 C75.62704873 53.84135102 71.45278096 53.99777438 67 55 C68.03898438 55.15855469 69.07796875 55.31710937 70.1484375 55.48046875 C78.32380938 56.8154035 86.01932664 58.20375504 93 63 C93.33 63.66 93.66 64.32 94 65 C92.88625 64.67 91.7725 64.34 90.625 64 C78.89929758 61.42516171 66.3432667 62.2633945 55 66 C55.85207031 66.27972656 56.70414063 66.55945313 57.58203125 66.84765625 C60.97317137 67.99095492 64.33429851 69.18735171 67.6875 70.4375 C69.36392578 71.05431641 69.36392578 71.05431641 71.07421875 71.68359375 C73.72817117 72.87769517 75.17492008 73.78797735 77 76 C67 74 67 74 64.5625 73.4453125 C56.63928757 72.06841278 48.6405674 72.60295925 41 75 C42.37671875 75.23783203 42.37671875 75.23783203 43.78125 75.48046875 C51.27456166 76.9051425 56.85130143 78.44996306 63 83 C62.67 83.66 62.34 84.32 62 85 C61.42636719 84.52304687 60.85273438 84.04609375 60.26171875 83.5546875 C54.12722941 79.33788826 45.81581469 80.95278272 38.88720703 82.17382812 C26.10854078 84.77065033 13.63692723 89.10473295 1.21362305 93.01611328 C-3.86540793 94.57111555 -8.18313022 95.16017778 -13.5 95.125 C-14.20253906 95.12306641 -14.90507812 95.12113281 -15.62890625 95.11914062 C-21.78309518 95.06887955 -27.87957302 94.64913619 -34 94 C-34 93.34 -34 92.68 -34 92 C-34.804375 91.94392578 -34.804375 91.94392578 -35.625 91.88671875 C-40.97164382 91.43823382 -46.06739012 90.57331542 -51.3125 89.4375 C-67.80456309 86.12233202 -83.90687432 86.34890387 -98.5625 95.1875 C-103.56326415 98.53830272 -108.1933191 102.29276653 -112.78515625 106.1796875 C-115 108 -115 108 -117 109 C-116.45876313 103.91707981 -114.67974471 99.9539069 -112.3125 95.5 C-109.66197244 90.38460557 -107.22768197 85.28355323 -105.0625 79.9375 C-97.69230253 62.42830115 -86.04403185 47.63610138 -73 34 C-71.74509766 32.68322266 -71.74509766 32.68322266 -70.46484375 31.33984375 C-62.02407098 22.68504188 -52.57182812 15.35021863 -43 8 C-42.01 8.495 -42.01 8.495 -41 9 C-42.98 11.31 -44.96 13.62 -47 16 C-45.845 15.0925 -44.69 14.185 -43.5 13.25 C-35.26652905 6.78084425 -26.78028046 4.78203387 -16.6875 2.75 C-15.41326172 2.481875 -14.13902344 2.21375 -12.82617188 1.9375 C-3.48959662 0 -3.48959662 0 0 0 Z " fill="#12110C" transform="translate(263,455)"/>
<path d="M0 0 C0.495 1.98 0.495 1.98 1 4 C2.010625 3.835 3.02125 3.67 4.0625 3.5 C7.76262933 3.03014231 11.27607391 2.92400151 15 3 C14.64266533 9.78935871 10.78248948 15.47929902 6.66015625 20.6953125 C4.36342431 22.5002736 2.13486381 22.99021012 -0.6875 23.6875 C-1.68136719 23.93886719 -2.67523438 24.19023437 -3.69921875 24.44921875 C-4.45847656 24.63097656 -5.21773438 24.81273437 -6 25 C-5.7834375 24.36191406 -5.566875 23.72382813 -5.34375 23.06640625 C-5.0653125 22.24011719 -4.786875 21.41382813 -4.5 20.5625 C-4.2215625 19.73878906 -3.943125 18.91507812 -3.65625 18.06640625 C-2.94955282 16.20250304 -2.94955282 16.20250304 -3 15 C-4.98 18.63 -6.96 22.26 -9 26 C-9.495 25.01 -9.495 25.01 -10 24 C-9.67 23.34 -9.34 22.68 -9 22 C-9.66 22 -10.32 22 -11 22 C-11.4021875 23.1446875 -11.4021875 23.1446875 -11.8125 24.3125 C-12.94424112 26.87380884 -13.91223401 28.19692938 -16 30 C-16.66 29.67 -17.32 29.34 -18 29 C-17.505 28.21625 -17.01 27.4325 -16.5 26.625 C-14.83462035 24.21447673 -14.83462035 24.21447673 -15 22 C-15.38929688 22.46148437 -15.77859375 22.92296875 -16.1796875 23.3984375 C-23.57378985 32.01921121 -31.1298403 39.59386983 -40.47265625 46.04516602 C-69.10301339 66.02099719 -89.66761147 92.70497569 -102.734375 125.0234375 C-104.90850854 130.1366775 -107.45333399 135.06419372 -110 140 C-109.67 140.33 -109.34 140.66 -109 141 C-108.35675781 140.443125 -107.71351563 139.88625 -107.05078125 139.3125 C-94.59962707 128.7974026 -82.2846502 120.38061891 -65.5 120.5 C-64.62577393 120.50064453 -63.75154785 120.50128906 -62.85083008 120.50195312 C-51.03536823 120.75744485 -39.49312674 123.43109282 -28 126 C-28 126.33 -28 126.66 -28 127 C-29.16233154 127.15557373 -30.32466309 127.31114746 -31.5222168 127.47143555 C-74.22026096 130.38508719 -74.22026096 130.38508719 -111.60693359 147.61669922 C-113 149 -113 149 -115 149 C-114.75781738 148.24565674 -114.75781738 148.24565674 -114.51074219 147.47607422 C-112.73411549 141.76097479 -111.21243588 136.00049032 -109.765625 130.1953125 C-98.6240513 85.53040731 -84.85827896 44.71826554 -43.23828125 19.30419922 C-31.68932963 12.57486899 -19.87083151 7.34033921 -6.77636719 4.53198242 C-4.83077234 4.10441379 -2.91090867 3.56265644 -1 3 C-0.67 2.01 -0.34 1.02 0 0 Z " fill="#D9D9D9" transform="translate(257,421)"/>
<path d="M0 0 C4.41833147 0.51835664 8.73268319 1.06293847 13.06640625 2.0859375 C13.95618164 2.2931543 14.84595703 2.50037109 15.76269531 2.71386719 C16.68663086 2.93204102 17.61056641 3.15021484 18.5625 3.375 C20.52710389 3.82656567 22.49194861 4.27708481 24.45703125 4.7265625 C27.03510545 5.31810842 29.61308256 5.90972214 32.18896484 6.51074219 C42.46043664 8.88484522 52.50161734 9.65125648 63 10 C58.44233326 15.86462765 53.62091663 19.62587026 47.38671875 23.60546875 C46.45890091 24.21078934 45.53108307 24.81610992 44.57514954 25.43977356 C41.61910011 27.36591517 38.6539098 29.27736133 35.6875 31.1875 C31.81325045 33.69698272 27.94318344 36.21284782 24.07421875 38.73046875 C23.13472382 39.33978241 22.19522888 39.94909607 21.2272644 40.57687378 C14.37862463 45.03919727 7.67059891 49.67138208 1.06559753 54.48710632 C-3.79519219 58 -3.79519219 58 -6 58 C-5.566875 56.7625 -5.13375 55.525 -4.6875 54.25 C-4.11873608 52.50202579 -3.55661354 50.75188117 -3 49 C-2.73123047 48.18789063 -2.46246094 47.37578125 -2.18554688 46.5390625 C0.61368256 36.96976688 0.33848598 27.61631639 0.1875 17.75 C0.17241737 16.02214716 0.15873533 14.29428149 0.14648438 12.56640625 C0.11378169 8.37728156 0.06220022 4.18878627 0 0 Z " fill="#FCFCFB" transform="translate(309,459)"/>
<path d="M0 0 C0.07476562 0.98097656 0.14953125 1.96195312 0.2265625 2.97265625 C1.70527187 19.14351483 7.67682199 37.73561533 20 49 C24.04135218 51.98916581 28.23254523 54.36118742 33 56 C29.37113709 57.20962097 26.46470988 56.82420076 22.75 56.375 C22.01056152 56.28943848 21.27112305 56.20387695 20.50927734 56.11572266 C15.0973945 55.42519888 9.85308251 54.32470196 4.54711914 53.06640625 C-10.84444553 49.42458896 -26.69421543 46.39326782 -41 55 C-43.21721706 56.55667991 -45.05100329 58.10514209 -47 60 C-47.66 59.67 -48.32 59.34 -49 59 C-48.67837891 58.54786133 -48.35675781 58.09572266 -48.02539062 57.62988281 C-40.30688455 46.7882172 -40.30688455 46.7882172 -32.875 35.75 C-26.33622612 25.83945754 -19.07745159 15.09815438 -10 7.375 C-8.97712891 6.50294922 -8.97712891 6.50294922 -7.93359375 5.61328125 C-1.20581114 0 -1.20581114 0 0 0 Z " fill="#FCFCFB" transform="translate(204,487)"/>
<path d="M0 0 C0.495 1.98 0.495 1.98 1 4 C2.010625 3.835 3.02125 3.67 4.0625 3.5 C7.76262933 3.03014231 11.27607391 2.92400151 15 3 C14.64266533 9.78935871 10.78248948 15.47929902 6.66015625 20.6953125 C4.36342431 22.5002736 2.13486381 22.99021012 -0.6875 23.6875 C-1.68136719 23.93886719 -2.67523438 24.19023437 -3.69921875 24.44921875 C-4.45847656 24.63097656 -5.21773438 24.81273437 -6 25 C-5.7834375 24.36191406 -5.566875 23.72382813 -5.34375 23.06640625 C-5.0653125 22.24011719 -4.786875 21.41382813 -4.5 20.5625 C-4.2215625 19.73878906 -3.943125 18.91507812 -3.65625 18.06640625 C-2.94955282 16.20250304 -2.94955282 16.20250304 -3 15 C-4.98 18.63 -6.96 22.26 -9 26 C-10.06396981 21.74412077 -9.77540332 20.32535515 -8.5625 16.25 C-8.27503906 15.26515625 -7.98757812 14.2803125 -7.69140625 13.265625 C-7.46324219 12.51796875 -7.23507813 11.7703125 -7 11 C-7.99 11 -8.98 11 -10 11 C-10.33 11.99 -10.66 12.98 -11 14 C-11 13.34 -11 12.68 -11 12 C-23.65014928 17.45561314 -35.80645197 22.89994161 -47 31 C-47.57121582 31.41330566 -48.14243164 31.82661133 -48.73095703 32.25244141 C-71.29904062 48.77916525 -88.10468844 69.74510299 -98 96 C-98.33 96 -98.66 96 -99 96 C-98.48876395 89.8789846 -97.06826529 84.98845249 -94.625 79.375 C-94.32078125 78.65054688 -94.0165625 77.92609375 -93.703125 77.1796875 C-80.24789334 45.43914103 -53.9883115 22.42254418 -22.71484375 9.04394531 C-17.53733222 7.05302451 -12.19493712 5.69409775 -6.77636719 4.53198242 C-4.83077234 4.10441379 -2.91090867 3.56265644 -1 3 C-0.67 2.01 -0.34 1.02 0 0 Z " fill="#9E9E9D" transform="translate(257,421)"/>
<path d="M0 0 C2.01178763 3.01768145 2.47455942 4.63136395 3.11328125 8.12109375 C3.30631836 9.13349121 3.49935547 10.14588867 3.69824219 11.18896484 C4.0022998 12.79698975 4.0022998 12.79698975 4.3125 14.4375 C7.29349211 29.24396964 10.6277284 41.70155488 23.67578125 50.8828125 C29.56331602 54.33039297 35.24502863 56.15013375 42 57 C41.67 57.99 41.34 58.98 41 60 C42.65 60.33 44.3 60.66 46 61 C40.00680529 64.99546314 32.00139743 64.77695205 25 64 C13.44511682 60.19754199 6.75063644 52.34564259 1 42 C-0.81538029 38.38886516 -2.45619337 34.73464986 -4 31 C-4.309375 30.25492187 -4.61875 29.50984375 -4.9375 28.7421875 C-6.48384541 24.83171785 -7.58988545 21.18316845 -8 17 C-8.11085937 16.14019531 -8.22171875 15.28039062 -8.3359375 14.39453125 C-8.57062308 11.39622065 -8.63272024 8.94542183 -8 6 C-5.67500576 3.33922978 -3.10949918 1.64498059 0 0 Z " fill="#94C121" transform="translate(212,480)"/>
<path d="M0 0 C0.87422607 0.00064453 1.74845215 0.00128906 2.64916992 0.00195312 C14.46463177 0.25744485 26.00687326 2.93109282 37.5 5.5 C37.5 5.83 37.5 6.16 37.5 6.5 C36.33766846 6.65557373 35.17533691 6.81114746 33.9777832 6.97143555 C-8.72026096 9.88508719 -8.72026096 9.88508719 -46.10693359 27.11669922 C-47.5 28.5 -47.5 28.5 -49.5 28.5 C-48.51 25.035 -48.51 25.035 -47.5 21.5 C-46.94183594 21.41878906 -46.38367188 21.33757813 -45.80859375 21.25390625 C-42.74405648 20.2531352 -40.98405898 18.56046073 -38.5625 16.4375 C-26.98054101 6.75498228 -15.39234976 -0.10947833 0 0 Z " fill="#9E9E9D" transform="translate(191.5,541.5)"/>
<path d="M0 0 C1 2 1 2 0.47094727 3.78759766 C0.17244873 4.48933105 -0.1260498 5.19106445 -0.43359375 5.9140625 C-0.75263672 6.67460937 -1.07167969 7.43515625 -1.40039062 8.21875 C-1.74263672 9.0128125 -2.08488281 9.806875 -2.4375 10.625 C-2.77587891 11.42679687 -3.11425781 12.22859375 -3.46289062 13.0546875 C-4.30166778 15.03939964 -5.14995245 17.02008875 -6 19 C-6.99 19 -7.98 19 -9 19 C-10.77619726 20.18221853 -12.49932166 21.44517386 -14.1875 22.75 C-18.65851492 26.08843687 -22.84972278 28.84624771 -28 31 C-28.66 30.67 -29.32 30.34 -30 30 C-29.01 28.68 -28.02 27.36 -27 26 C-27.53109375 26.42152344 -28.0621875 26.84304688 -28.609375 27.27734375 C-29.66898437 28.09912109 -29.66898437 28.09912109 -30.75 28.9375 C-31.44609375 29.48277344 -32.1421875 30.02804687 -32.859375 30.58984375 C-34.96092128 31.97425654 -36.54321799 32.56286987 -39 33 C-38.67 32.01 -38.34 31.02 -38 30 C-38.474375 30.66 -38.94875 31.32 -39.4375 32 C-43.27755961 34.9971197 -46.21070343 34.28172333 -51 34 C-49.02 31.36 -47.04 28.72 -45 26 C-45.99 27.11375 -46.98 28.2275 -48 29.375 C-51.8515219 33.23433432 -54.62044577 34.29448469 -60 35 C-62.23828125 34.53125 -62.23828125 34.53125 -64 34 C-63.21496094 33.56429687 -62.42992187 33.12859375 -61.62109375 32.6796875 C-54.59440533 28.78026076 -54.59440533 28.78026076 -48.5625 23.5625 C-45.41823995 20.66245432 -43.0206761 20.71278019 -38.8125 20.8125 C-37.68972656 20.86277344 -36.56695312 20.91304688 -35.41015625 20.96484375 C-23.15463508 21.09118933 -14.52834801 15.60309956 -6.0625 7.3125 C-3.72896901 4.92958211 -1.85611733 2.784176 0 0 Z " fill="#D5D5D5" transform="translate(418,417)"/>
<path d="M0 0 C0.6640625 1.72265625 0.6640625 1.72265625 1 4 C-1.5523389 9.3637498 -5.57588521 14.09031716 -10 18 C-10.62390625 18.5775 -11.2478125 19.155 -11.890625 19.75 C-21.07730394 27.68094584 -31.22568733 28.5636639 -43 28 C-42.278125 27.443125 -41.55625 26.88625 -40.8125 26.3125 C-35.31128088 21.95774976 -35.31128088 21.95774976 -32 16 C-29.8203125 14.71875 -29.8203125 14.71875 -27.125 13.5 C-23.84020263 12.00603968 -21.39450511 10.72751575 -19 8 C-18.34 8.33 -17.68 8.66 -17 9 C-17.99 10.32 -18.98 11.64 -20 13 C-12.67319999 9.2760024 -5.99009448 5.71148544 0 0 Z " fill="#16140F" transform="translate(410,434)"/>
<path d="M0 0 C1 3 1 3 0.3984375 4.83203125 C-5.29750982 15.85434152 -14.0441939 23.28392725 -25 29 C-22.69 29 -20.38 29 -18 29 C-18.99 29.33 -19.98 29.66 -21 30 C-21 30.66 -21 31.32 -21 32 C-24.11549872 33.55774936 -27.6044388 33.56480622 -31 33 C-32.75390625 31.484375 -32.75390625 31.484375 -34 30 C-33.28972656 29.51789063 -32.57945312 29.03578125 -31.84765625 28.5390625 C-30.92855469 27.90742188 -30.00945312 27.27578125 -29.0625 26.625 C-28.14597656 25.99851562 -27.22945313 25.37203125 -26.28515625 24.7265625 C-23.91612836 23.20228929 -23.91612836 23.20228929 -23 21 C-24.98 21.66 -26.96 22.32 -29 23 C-29 22.34 -29 21.68 -29 21 C-30.3921875 22.0209375 -30.3921875 22.0209375 -31.8125 23.0625 C-32.864375 23.701875 -33.91625 24.34125 -35 25 C-35.99 24.67 -36.98 24.34 -38 24 C-38 20.73536676 -37.60682928 19.96987619 -35.8125 17.375 C-35.20341797 16.45847656 -35.20341797 16.45847656 -34.58203125 15.5234375 C-32.40541909 13.42744061 -31.00580401 13.2140886 -28 13 C-25.76204536 13.45906762 -23.53301917 13.96289794 -21.3125 14.5 C-16.99544826 15.1885539 -14.86586219 15.47865133 -11.00390625 13.34375 C-6.615442 9.43130045 -2.89029571 5.12370603 0 0 Z " fill="#13110D" transform="translate(381,422)"/>
<path d="M0 0 C2.08450717 0.2831556 4.16758367 0.57685669 6.25 0.875 C7.99023438 1.11863281 7.99023438 1.11863281 9.765625 1.3671875 C12.62399267 1.92643335 14.47555949 2.65139204 17 4 C17.07558065 7.87360504 17.1292563 11.74691006 17.16479492 15.62109375 C17.18685261 17.56786238 17.22501918 19.51442765 17.26367188 21.4609375 C17.3488621 32.59246064 16.33089859 43.0695107 11 53 C10.34 53 9.68 53 9 53 C9.165 51.7625 9.33 50.525 9.5 49.25 C10.03674749 43.81251454 10.14719407 38.39693842 10.1875 32.9375 C10.20039063 32.09928711 10.21328125 31.26107422 10.2265625 30.39746094 C10.2387634 22.60413868 9.19019389 15.54788007 5.4375 8.625 C4.06067574 6.05111488 2.92615979 3.77847937 2 1 C1.34 0.67 0.68 0.34 0 0 Z " fill="#066732" transform="translate(293,455)"/>
<path d="M0 0 C3.54344777 3.22847463 4.82000972 4.74006803 5.5 9.5 C4.77361202 14.58471588 3.26978743 17.69589399 -0.3125 21.375 C-3.55646077 23.33646465 -5.27381866 23.64803154 -9 23 C-11.71893032 20.15251505 -12.43135549 18.08926396 -12.4375 14.1875 C-12.28528425 9.0349967 -11.02224358 6.14479119 -8 2 C-4.73201451 -0.178657 -3.79094962 -0.72208564 0 0 Z " fill="#FDFEFC" transform="translate(290,469)"/>
<path d="M0 0 C1.55654297 0.51530273 1.55654297 0.51530273 3.14453125 1.04101562 C9.30068088 3.10988558 15.25070942 5.41585388 21.125 8.1875 C20.465 8.8475 19.805 9.5075 19.125 10.1875 C11.12999874 9.72654593 3.15318634 7.28332526 -4.5625 5.25 C-14.2759037 2.7486617 -23.96530982 0.72242484 -33.875 -0.8125 C-33.875 -1.8025 -33.875 -2.7925 -33.875 -3.8125 C-31.52128886 -4.0093999 -29.1675305 -4.19520974 -26.8125 -4.375 C-25.50152344 -4.47941406 -24.19054687 -4.58382813 -22.83984375 -4.69140625 C-14.62775393 -4.94221885 -7.68418957 -2.61035047 0 0 Z " fill="#14120E" transform="translate(322.875,455.8125)"/>
<path d="M0 0 C1.28083942 2.56167883 0.7026161 3.27557024 0 6 C-0.95722344 21.18200905 2.64347878 36.43075924 12.5078125 48.390625 C17.49391223 53.76830325 22.84360521 57.51850303 30.30078125 58.21484375 C33.72883515 58.26669667 36.81644809 58.03599057 40.1875 57.375 C43.62501946 56.91666407 45.81984128 57.7127929 49 59 C43.00680529 62.99546314 35.00139743 62.77695205 28 62 C16.44511682 58.19754199 9.75063644 50.34564259 4 40 C2.18461971 36.38886516 0.54380663 32.73464986 -1 29 C-1.309375 28.25492187 -1.61875 27.50984375 -1.9375 26.7421875 C-4.79739818 19.50994498 -6.13800658 11.76023633 -5 4 C-2.5 1.3125 -2.5 1.3125 0 0 Z " fill="#78BC41" transform="translate(209,482)"/>
<path d="M0 0 C0.33 0 0.66 0 1 0 C0.73958333 1.98567708 0.47916667 3.97135417 0.21875 5.95703125 C-0.053233 8.15471706 -0.053233 8.15471706 0 11 C-1.28579946 14.38019447 -2.96707087 16.02909636 -5.875 18.125 C-6.55304688 18.62257813 -7.23109375 19.12015625 -7.9296875 19.6328125 C-12.79261408 22.84417911 -15.13389154 23.12809778 -21 22 C-21 21.34 -21 20.68 -21 20 C-21.99 19.67 -22.98 19.34 -24 19 C-21.63899889 15.30681391 -19.25400968 11.95581266 -16 9 C-13.21790256 8.48095197 -11.00425576 8.65981264 -8.203125 8.96484375 C-5.71246676 9.25461085 -5.71246676 9.25461085 -3.5 6.75 C-1.65753217 3.42072956 -1.65753217 3.42072956 0 0 Z " fill="#1E1D19" transform="translate(347,423)"/>
<path d="M0 0 C0.33 0.66 0.66 1.32 1 2 C0.06421005 4.35981813 -0.93347808 6.69631264 -2 9 C-1.38125 9.144375 -0.7625 9.28875 -0.125 9.4375 C2 10 2 10 4 11 C2.56188795 14.54529226 0.8685536 16.10778597 -2.3125 18.1875 C-3.07175781 18.69667969 -3.83101563 19.20585937 -4.61328125 19.73046875 C-7.10281797 21.05469041 -9.22328716 21.59209351 -12 22 C-10.68 20.68 -9.36 19.36 -8 18 C-9.65 18 -11.3 18 -13 18 C-12.67 17.34 -12.34 16.68 -12 16 C-12.51949219 16.28875 -13.03898437 16.5775 -13.57421875 16.875 C-14.27160156 17.24625 -14.96898437 17.6175 -15.6875 18 C-16.71423828 18.556875 -16.71423828 18.556875 -17.76171875 19.125 C-20.31531704 20.1232653 -22.28179271 20.15233386 -25 20 C-23 17.33333333 -21 14.66666667 -19 12 C-18.55011719 11.2471875 -18.10023438 10.494375 -17.63671875 9.71875 C-16 8 -16 8 -13.4765625 7.890625 C-12.06503906 8.06851562 -12.06503906 8.06851562 -10.625 8.25 C-7.71253567 8.48317569 -7.71253567 8.48317569 -5 8 C-2.56915336 5.65726508 -1.25680312 3.11076131 0 0 Z " fill="#14130E" transform="translate(321,420)"/>
<path d="M0 0 C1 3 1 3 0.1796875 5.05078125 C-7.14914749 17.75555808 -7.14914749 17.75555808 -14.8125 19.875 C-16.53689576 20.27136045 -18.26488091 20.65358393 -20 21 C-19.28572475 18.85717424 -18.56606167 16.71932829 -17.8125 14.58984375 C-16.94128189 12.04596917 -16.94128189 12.04596917 -16.625 9.50390625 C-16.1216923 6.76717065 -15.73768808 5.19712916 -14 3 C-9.41562107 1.2930504 -4.84730521 0.55708792 0 0 Z " fill="#D8D8D8" transform="translate(271,425)"/>
<path d="M0 0 C1.5913526 2.3870289 2.54551181 4.28221062 3.625 6.875 C5.99804782 11.62109564 9.07231753 14.08659138 14 16 C19.33848952 17.23996831 23.12257621 16.2922291 27.75 13.4375 C31.80759133 10.46003806 34.35966903 7.25859834 37 3 C39.98828314 3.32305764 41.61321245 3.65189121 43.875 5.6875 C45.38380949 8.78894173 44.81980367 10.72078533 44 14 C37.6 15.35384615 37.6 15.35384615 34.5625 13.5625 C34.046875 13.046875 33.53125 12.53125 33 12 C32.236875 12.78375 31.47375 13.5675 30.6875 14.375 C26.34097749 17.95268009 21.55488508 18.93056394 16 19 C9.66095866 17.74209648 5.66247111 14.3714699 2.0859375 9.10546875 C0.48784815 6.00701493 0.14449246 3.46781905 0 0 Z " fill="#CCE7B6" transform="translate(237,493)"/>
<path d="M0 0 C0.33 0.66 0.66 1.32 1 2 C0.67 2.99 0.34 3.98 0 5 C0.66 5 1.32 5 2 5 C0.70970987 11.19339263 -1.9964167 15.15289443 -6 20 C-6.66 19.67 -7.32 19.34 -8 19 C-7.34 17.68 -6.68 16.36 -6 15 C-7.98 16.65 -9.96 18.3 -12 20 C-13.36834889 16.30545799 -12.55716488 14.52410999 -11 11 C-10.31320058 8.67251306 -9.64238957 6.34013344 -9 4 C-8.34 4 -7.68 4 -7 4 C-6.34 3.34 -5.68 2.68 -5 2 C-5 2.99 -5 3.98 -5 5 C-1.88667752 4.33131686 -1.88667752 4.33131686 -0.8125 1.9375 C-0.544375 1.298125 -0.27625 0.65875 0 0 Z " fill="#A7A7A6" transform="translate(283,420)"/>
<path d="M0 0 C0.75410156 0.09990234 1.50820313 0.19980469 2.28515625 0.30273438 C4.14917753 0.55048404 6.01219288 0.80578057 7.875 1.0625 C7.875 1.7225 7.875 2.3825 7.875 3.0625 C4.125 5.0625 4.125 5.0625 1.875 5.0625 C-0.14956848 6.35822383 -2.15178947 7.6898318 -4.125 9.0625 C-4.785 8.7325 -5.445 8.4025 -6.125 8.0625 C-7.46746312 8.71058564 -8.79932801 9.38072584 -10.125 10.0625 C-11.78240715 10.43918344 -13.44845271 10.78307545 -15.125 11.0625 C-15.455 10.0725 -15.785 9.0825 -16.125 8.0625 C-14.98046875 6.0546875 -14.98046875 6.0546875 -13.3125 3.9375 C-12.76980469 3.23367188 -12.22710937 2.52984375 -11.66796875 1.8046875 C-8.27002217 -2.0319813 -4.612493 -0.64128789 0 0 Z " fill="#C7C7C7" transform="translate(358.125,435.9375)"/>
<path d="M0 0 C0.33 1.32 0.66 2.64 1 4 C2.010625 3.835 3.02125 3.67 4.0625 3.5 C7.76262933 3.03014231 11.27607391 2.92400151 15 3 C14.67 3.66 14.34 4.32 14 5 C11.85546875 5.6328125 11.85546875 5.6328125 9.1875 6.125 C8.31480469 6.29257812 7.44210937 6.46015625 6.54296875 6.6328125 C4 7 4 7 0 7 C0 7.99 0 8.98 0 10 C-0.66 10 -1.32 10 -2 10 C-2.17015625 10.56847656 -2.3403125 11.13695312 -2.515625 11.72265625 C-4.15067737 16.9322114 -6.13309172 21.35363141 -9 26 C-10.11417492 22.70204223 -9.88517711 20.96402969 -8.625 17.75 C-7.06599964 13.45740998 -6.41282583 9.54108418 -6 5 C-5.195625 4.731875 -4.39125 4.46375 -3.5625 4.1875 C-2.716875 3.795625 -1.87125 3.40375 -1 3 C-0.67 2.01 -0.34 1.02 0 0 Z " fill="#60605F" transform="translate(257,421)"/>
<path d="M0 0 C2.97 0 5.94 0 9 0 C8.66506307 5.3589909 5.42872819 9.10743856 2 13 C0 14 0 14 -7 14 C-4.69 9.38 -2.38 4.76 0 0 Z " fill="#DADADA" transform="translate(286,426)"/>
<path d="M0 0 C0.89332031 0.13921875 1.78664063 0.2784375 2.70703125 0.421875 C3.60808594 0.55078125 4.50914062 0.6796875 5.4375 0.8125 C6.12457031 0.93109375 6.81164062 1.0496875 7.51953125 1.171875 C5.37761755 6.62724636 0.58837237 8.73188143 -4.48046875 11.171875 C-6.9262117 11.84046434 -8.93279809 12.06110671 -11.48046875 12.171875 C-9.48046875 9.50520833 -7.48046875 6.83854167 -5.48046875 4.171875 C-4.79984375 3.04265625 -4.79984375 3.04265625 -4.10546875 1.890625 C-2.48046875 0.171875 -2.48046875 0.171875 0 0 Z " fill="#D7D7D7" transform="translate(307.48046875,427.828125)"/>
<path d="M0 0 C0.33 0 0.66 0 1 0 C1.65866387 8.06863235 -0.71243033 15.33580674 -3 23 C-3.3196875 24.093125 -3.639375 25.18625 -3.96875 26.3125 C-5.2644852 29.68926445 -7.05732573 30.98659129 -10 33 C-10.66 32.01 -11.32 31.02 -12 30 C-11.3203125 27.984375 -11.3203125 27.984375 -10.125 25.75 C-8.05257696 21.50083733 -7.60173809 18.67957745 -8 14 C-7.34 13.67 -6.68 13.34 -6 13 C-6.33 15.31 -6.66 17.62 -7 20 C-6.34 20 -5.68 20 -5 20 C-2.56569185 13.42736799 -1.09890483 6.91663627 0 0 Z " fill="#74B941" transform="translate(309,488)"/>
<path d="M0 0 C0 3 0 3 -2.5 5.6875 C-3.325 6.450625 -4.15 7.21375 -5 8 C-2.525 8.99 -2.525 8.99 0 10 C-4.15862372 14.72755596 -10.47041236 16.82554568 -16.625 17.25 C-17.40875 17.1675 -18.1925 17.085 -19 17 C-19 16.34 -19 15.68 -19 15 C-18.44570313 14.82984375 -17.89140625 14.6596875 -17.3203125 14.484375 C-16.23363281 14.12085938 -16.23363281 14.12085938 -15.125 13.75 C-14.04605469 13.40195312 -14.04605469 13.40195312 -12.9453125 13.046875 C-10.48181821 11.72113912 -10.17196995 10.4956066 -9 8 C-7.08984375 6.11328125 -7.08984375 6.11328125 -4.9375 4.3125 C-4.22464844 3.71050781 -3.51179688 3.10851562 -2.77734375 2.48828125 C-2.19082031 1.99714844 -1.60429687 1.50601562 -1 1 C-0.67 0.67 -0.34 0.34 0 0 Z " fill="#11100C" transform="translate(373,442)"/>
<path d="M0 0 C1.9375 0.75 1.9375 0.75 3.9375 2.75 C3.5625 5.875 3.5625 5.875 2.9375 8.75 C-0.4375 9.375 -0.4375 9.375 -4.0625 9.75 C-4.7225 9.09 -5.3825 8.43 -6.0625 7.75 C-5.875 4.75 -5.875 4.75 -5.0625 1.75 C-2.0625 -0.25 -2.0625 -0.25 0 0 Z " fill="#FBFDFA" transform="translate(278.0625,498.25)"/>
<path d="M0 0 C0.061875 0.70125 0.12375 1.4025 0.1875 2.125 C1.08464582 5.29951596 2.58844637 6.96989336 4.72265625 9.42578125 C9.48583295 15.29599596 9.26187728 20.82618469 9.0078125 28.109375 C8.84622569 31.06999474 8.84622569 31.06999474 10 34 C8.68 34.99 7.36 35.98 6 37 C6.05800781 35.74445313 6.11601562 34.48890625 6.17578125 33.1953125 C6.74683692 19.80134817 6.74683692 19.80134817 1 8 C-2.04804621 4.95195379 -4.93861441 3.39247506 -9 2 C-5.86501708 0.14223235 -3.62528568 -0.20140476 0 0 Z " fill="#BAD9A1" transform="translate(270,457)"/>
<path d="M0 0 C0.99 1.32 1.98 2.64 3 4 C2.63648438 4.55945313 2.27296875 5.11890625 1.8984375 5.6953125 C-2.58355037 12.84350853 -5.83165567 20.20272708 -9 28 C-9.33 28 -9.66 28 -10 28 C-9.4888086 21.81668481 -8.02158476 16.86192573 -5.5625 11.1875 C-5.24990234 10.43791016 -4.93730469 9.68832031 -4.61523438 8.91601562 C-3.25475271 5.6974554 -1.94984449 2.92476674 0 0 Z " fill="#ACABAB" transform="translate(168,489)"/>
<path d="M0 0 C2.26286417 0.2904786 4.30547977 0.7116212 6.46484375 1.44140625 C2.33357085 6.26122463 -2.57514639 9.22618135 -8.53515625 11.44140625 C-9.19515625 11.11140625 -9.85515625 10.78140625 -10.53515625 10.44140625 C-4.28134459 0.74544212 -4.28134459 0.74544212 0 0 Z " fill="#D9D9D9" transform="translate(333.53515625,431.55859375)"/>
<path d="M0 0 C1 3 1 3 -0.328125 6.25 C-0.95840773 7.50524662 -1.59949541 8.75511279 -2.25 10 C-2.71986328 10.94359375 -2.71986328 10.94359375 -3.19921875 11.90625 C-4.79566657 15.03290299 -6.29067159 17.72550208 -9 20 C-9.66 19.67 -10.32 19.34 -11 19 C-10.566875 18.38125 -10.13375 17.7625 -9.6875 17.125 C-7.42450944 12.93427674 -6.25333265 8.5777753 -5 4 C-4.34 4 -3.68 4 -3 4 C-3 3.01 -3 2.02 -3 1 C-2.01 0.67 -1.02 0.34 0 0 Z " fill="#CBCBCA" transform="translate(250,431)"/>
<path d="M0 0 C0.33 0 0.66 0 1 0 C0.7523437 6.93437639 -1.23373443 10.94918127 -6 16 C-6.99 16.66 -7.98 17.32 -9 18 C-9.66 17.34 -10.32 16.68 -11 16 C-9.20893191 11.98800747 -6.6085779 9.20252518 -3.65625 6 C-2.06105306 4.07372445 -1.01567082 2.27510263 0 0 Z " fill="#13110E" transform="translate(347,423)"/>
<path d="M0 0 C0.5775 0.37125 1.155 0.7425 1.75 1.125 C0.31188795 4.67029226 -1.3814464 6.23278597 -4.5625 8.3125 C-5.32175781 8.82167969 -6.08101563 9.33085937 -6.86328125 9.85546875 C-9.35281797 11.17969041 -11.47328716 11.71709351 -14.25 12.125 C-9.25 7.125 -9.25 7.125 -7.4375 5.5 C-5.92319006 4.04938937 -5.92319006 4.04938937 -6.25 1.125 C-2.80384615 -1.09038462 -2.80384615 -1.09038462 0 0 Z " fill="#D1D1D1" transform="translate(323.25,429.875)"/>
<path d="M0 0 C1.65 0 3.3 0 5 0 C3.52364892 4.87195858 0.74048409 8.60704255 -3 12 C-5.875 12.9375 -5.875 12.9375 -8 13 C-7.236875 11.96875 -6.47375 10.9375 -5.6875 9.875 C-3.42984469 6.72582739 -1.63254992 3.52287088 0 0 Z " fill="#CDCDCC" transform="translate(297,427)"/>
<path d="M0 0 C1 2 1 2 0.29296875 4.34765625 C-0.07183594 5.24355469 -0.43664062 6.13945312 -0.8125 7.0625 C-1.16957031 7.96097656 -1.52664063 8.85945313 -1.89453125 9.78515625 C-3 12 -3 12 -5 13 C-5.33 12.34 -5.66 11.68 -6 11 C-10.455 14.465 -10.455 14.465 -15 18 C-15 15 -15 15 -13.49609375 13.45703125 C-12.81675781 12.91433594 -12.13742187 12.37164062 -11.4375 11.8125 C-7.14890118 8.23484537 -3.56378759 4.28768195 0 0 Z " fill="#E0E0E0" transform="translate(418,417)"/>
<path d="M0 0 C2.475 0.99 2.475 0.99 5 2 C4.50628906 2.75925781 4.01257813 3.51851562 3.50390625 4.30078125 C2.86324219 5.29464844 2.22257813 6.28851562 1.5625 7.3125 C0.60537109 8.79169922 0.60537109 8.79169922 -0.37109375 10.30078125 C-2.10615606 12.95276993 -2.10615606 12.95276993 -3 16 C-3.66 16 -4.32 16 -5 16 C-5.66 17.32 -6.32 18.64 -7 20 C-7 17.02251797 -6.59808954 15.67046266 -5.46875 12.98828125 C-4.99501953 11.85229492 -4.99501953 11.85229492 -4.51171875 10.69335938 C-4.17785156 9.90767578 -3.84398437 9.12199219 -3.5 8.3125 C-3.16613281 7.51521484 -2.83226562 6.71792969 -2.48828125 5.89648438 C-1.66358684 3.92899913 -0.8324102 1.96423326 0 0 Z " fill="#252421" transform="translate(159,532)"/>
<path d="M0 0 C2.12636813 0.28151916 4.25108528 0.57553263 6.375 0.875 C7.55835938 1.03742187 8.74171875 1.19984375 9.9609375 1.3671875 C13 2 13 2 15 4 C11.06830336 6.62113109 9.39689982 5.88205685 4.8125 5.125 C3.54019531 4.92132812 2.26789063 4.71765625 0.95703125 4.5078125 C-0.01878906 4.34023438 -0.99460938 4.17265625 -2 4 C-1.34 2.68 -0.68 1.36 0 0 Z " fill="#1B1A17" transform="translate(210,540)"/>
<path d="M0 0 C-6.23352988 4.15568659 -13.76791678 3.1053216 -21 3 C-18.72451465 -0.41322802 -18.25751444 -0.52936715 -14.4375 -1.3125 C-9.22263254 -2.24616623 -5.00997779 -1.57318143 0 0 Z " fill="#7FBE4D" transform="translate(258,541)"/>
<path d="M0 0 C0.33 0 0.66 0 1 0 C0.61330541 6.96050253 -1.63438409 11.9394075 -5 18 C-6.046875 16.14453125 -6.046875 16.14453125 -7 14 C-6.25 11.6875 -6.25 11.6875 -5 9 C-4.31320058 6.67251306 -3.64238957 4.34013344 -3 2 C-2.34 2 -1.68 2 -1 2 C-0.67 1.34 -0.34 0.68 0 0 Z " fill="#4C4B4A" transform="translate(277,422)"/>
<path d="M0 0 C0.66 0.33 1.32 0.66 2 1 C1.34 1.66 0.68 2.32 0 3 C0.33 3.99 0.66 4.98 1 6 C-3 8 -7 10 -11 12 C-10.34 9.69 -9.68 7.38 -9 5 C-8.443125 4.9175 -7.88625 4.835 -7.3125 4.75 C-4.30285794 3.77389987 -2.37845248 2.04811186 0 0 Z " fill="#ADADAC" transform="translate(153,558)"/>
<path d="M0 0 C0.99 0.66 1.98 1.32 3 2 C5.05709596 2.24055468 5.05709596 2.24055468 7.1875 2.125 C8.445625 2.08375 9.70375 2.0425 11 2 C10.01 2.33 9.02 2.66 8 3 C8 3.66 8 4.32 8 5 C4.82975235 6.58512383 1.45332972 6.42372144 -2 6 C-4 4.5 -4 4.5 -5 3 C-3.35 2.01 -1.7 1.02 0 0 Z " fill="#1A1814" transform="translate(352,449)"/>
<path d="M0 0 C1.98 0 3.96 0 6 0 C6 5.28 6 10.56 6 16 C4.48485074 12.96970149 3.1380997 10.00935852 1.875 6.875 C1.52179688 6.00617188 1.16859375 5.13734375 0.8046875 4.2421875 C0 2 0 2 0 0 Z " fill="#66B22E" transform="translate(304,458)"/>
<path d="M0 0 C0.33 0 0.66 0 1 0 C0.70544888 7.65832917 -2.37172342 13.34261178 -6 20 C-6.66 19.34 -7.32 18.68 -8 18 C-7.51080078 17.05640625 -7.51080078 17.05640625 -7.01171875 16.09375 C-4.31620768 10.8140469 -1.96750019 5.59184265 0 0 Z " fill="#0F0E0D" transform="translate(299,416)"/>
<path d="M0 0 C1.1796875 1.546875 1.1796875 1.546875 2 4 C1.16272284 6.58794758 0.28640033 8.81847251 -0.875 11.25 C-1.17019531 11.8996875 -1.46539062 12.549375 -1.76953125 13.21875 C-2.49903434 14.81895032 -3.24769825 16.41039065 -4 18 C-4.33 18 -4.66 18 -5 18 C-4.51030705 11.38914524 -2.66557258 6.05022986 0 0 Z " fill="#B2B2B2" transform="translate(163,499)"/>
<path d="M0 0 C0.66 0.66 1.32 1.32 2 2 C-0.12254855 2.38863565 -2.24816828 2.76053209 -4.375 3.125 C-6.15003906 3.43824219 -6.15003906 3.43824219 -7.9609375 3.7578125 C-8.96382813 3.83773438 -9.96671875 3.91765625 -11 4 C-11.66 3.34 -12.32 2.68 -13 2 C-8.49016424 -0.25491788 -4.94576735 -0.32431261 0 0 Z " fill="#191A10" transform="translate(278,453)"/>
<path d="M0 0 C0.33 0 0.66 0 1 0 C1.4030217 6.98570955 0.22719884 13.35926951 -2 20 C-2.66 20.66 -3.32 21.32 -4 22 C-4.6875 20.4375 -4.6875 20.4375 -5 18 C-4.3024572 16.37240014 -3.59698248 14.74733017 -2.8359375 13.1484375 C-1.20134595 8.94738446 -0.68220799 4.43836489 0 0 Z " fill="#6DB538" transform="translate(309,488)"/>
<path d="M0 0 C1.63001953 0.01353516 1.63001953 0.01353516 3.29296875 0.02734375 C4.12441406 0.03894531 4.95585937 0.05054688 5.8125 0.0625 C5.4825 0.7225 5.1525 1.3825 4.8125 2.0625 C2.66796875 2.6953125 2.66796875 2.6953125 0 3.1875 C-1.30904297 3.43886719 -1.30904297 3.43886719 -2.64453125 3.6953125 C-5.1875 4.0625 -5.1875 4.0625 -9.1875 4.0625 C-9.1875 3.0725 -9.1875 2.0825 -9.1875 1.0625 C-5.90230525 -0.03256492 -3.45086585 -0.03710608 0 0 Z " fill="#A8A7A7" transform="translate(266.1875,423.9375)"/>
<path d="M0 0 C-1.43963639 3.35915158 -3.12416589 5.71624938 -6 8 C-8.25 7.75 -8.25 7.75 -10 7 C-4.34042553 0 -4.34042553 0 0 0 Z " fill="#9A9A99" transform="translate(352,437)"/>
<path d="M0 0 C1 3 1 3 0.22265625 5.04296875 C-0.16019531 5.75066406 -0.54304687 6.45835937 -0.9375 7.1875 C-1.31777344 7.90292969 -1.69804687 8.61835938 -2.08984375 9.35546875 C-2.54037109 10.16951172 -2.54037109 10.16951172 -3 11 C-4.73304237 8.00774333 -5.07762489 7.35989723 -4.3125 3.8125 C-3.6628125 2.4203125 -3.6628125 2.4203125 -3 1 C-2.01 0.67 -1.02 0.34 0 0 Z " fill="#DDDDDD" transform="translate(250,431)"/>
<path d="M0 0 C1.670625 0.061875 1.670625 0.061875 3.375 0.125 C3.375 0.785 3.375 1.445 3.375 2.125 C-0.375 4.125 -0.375 4.125 -2.625 4.125 C-3.97382408 4.75974075 -5.3096659 5.42348848 -6.625 6.125 C-5.71577947 1.57889733 -4.95184304 0.17075321 0 0 Z " fill="#D7D7D7" transform="translate(362.625,436.875)"/>
<path d="M0 0 C0.99 0 1.98 0 3 0 C1.5741914 3.45195767 -0.09746334 5.1014256 -3.125 7.25 C-4.21167969 8.03117187 -4.21167969 8.03117187 -5.3203125 8.828125 C-5.87460937 9.21484375 -6.42890625 9.6015625 -7 10 C-7.66 9.67 -8.32 9.34 -9 9 C-8.43410156 8.51789063 -7.86820312 8.03578125 -7.28515625 7.5390625 C-6.55167969 6.90742188 -5.81820313 6.27578125 -5.0625 5.625 C-4.33160156 4.99851562 -3.60070312 4.37203125 -2.84765625 3.7265625 C-0.91619094 2.12252286 -0.91619094 2.12252286 0 0 Z " fill="#E0E0E0" transform="translate(344,434)"/>
<path d="M0 0 C0.33 0.66 0.66 1.32 1 2 C0.00390625 4.3828125 0.00390625 4.3828125 -1.4375 7.125 C-1.91058594 8.03507812 -2.38367188 8.94515625 -2.87109375 9.8828125 C-3.24363281 10.58148438 -3.61617188 11.28015625 -4 12 C-4.99 12 -5.98 12 -7 12 C-6.02296079 10.1863523 -5.04330895 8.37411183 -4.0625 6.5625 C-3.51722656 5.55316406 -2.97195313 4.54382813 -2.41015625 3.50390625 C-1 1 -1 1 0 0 Z " fill="#11100C" transform="translate(321,420)"/>
<path d="M0 0 C0.66 0 1.32 0 2 0 C1.46515599 5.34844008 -0.46690767 9.35796103 -3 14 C-4.1750709 10.47478731 -3.72717795 9.34332144 -2.625 5.875 C-2.34914062 4.98554688 -2.07328125 4.09609375 -1.7890625 3.1796875 C-1 1 -1 1 0 0 Z " fill="#E0E0E0" transform="translate(253,430)"/>
<path d="M0 0 C0.66 0.33 1.32 0.66 2 1 C0.54266958 5.61487965 0.54266958 5.61487965 -1.9375 7.375 C-4 8 -4 8 -7 7 C-6.34 6.67 -5.68 6.34 -5 6 C-4.67 5.01 -4.34 4.02 -4 3 C-1.9375 1.3125 -1.9375 1.3125 0 0 Z " fill="#151410" transform="translate(352,442)"/>
<path d="M0 0 C0.33 0 0.66 0 1 0 C0.88556397 2.0839403 0.75804453 4.16716493 0.625 6.25 C0.55539062 7.41015625 0.48578125 8.5703125 0.4140625 9.765625 C0.03751692 12.70694334 -0.4774123 14.49949011 -2 17 C-2.66 16.67 -3.32 16.34 -4 16 C-2.68 10.72 -1.36 5.44 0 0 Z " fill="#191817" transform="translate(273,418)"/>
<path d="M0 0 C0 1.65 0 3.3 0 5 C-3.14737182 4.30058404 -6.02588876 3.23921302 -9 2 C-5.86501708 0.14223235 -3.62528568 -0.20140476 0 0 Z " fill="#B7DA9A" transform="translate(270,457)"/>
<path d="M0 0 C1.65 0 3.3 0 5 0 C4.34 1.65 3.68 3.3 3 5 C1.68 5 0.36 5 -1 5 C-0.67 3.35 -0.34 1.7 0 0 Z " fill="#DDDDDD" transform="translate(297,427)"/>
<path d="M0 0 C0.99 0.33 1.98 0.66 3 1 C1.68 4.3 0.36 7.6 -1 11 C-2.13757948 6.44968209 -1.4283779 4.36915594 0 0 Z " fill="#DCDCDC" transform="translate(274,424)"/>
<path d="M0 0 C0.33 0 0.66 0 1 0 C1.33 3.3 1.66 6.6 2 10 C1.34 10 0.68 10 0 10 C-2.08207071 5.59090909 -2.08207071 5.59090909 -1.6875 2.75 C-1 1 -1 1 0 0 Z " fill="#74B939" transform="translate(208,500)"/>
<path d="M0 0 C0.66 0.33 1.32 0.66 2 1 C-1.07999946 4.67230705 -3.2482602 5.56802365 -8 6 C-8 5.34 -8 4.68 -8 4 C-6.71349294 3.30289269 -5.42059335 2.61757124 -4.125 1.9375 C-3.40570313 1.55464844 -2.68640625 1.17179687 -1.9453125 0.77734375 C-1.30335938 0.52082031 -0.66140625 0.26429688 0 0 Z " fill="#110F0C" transform="translate(309,435)"/>
<path d="M0 0 C0.99 0.66 1.98 1.32 3 2 C-2.17578125 5.22265625 -2.17578125 5.22265625 -4 6 C-4.99 5.67 -5.98 5.34 -7 5 C-4.69 3.35 -2.38 1.7 0 0 Z " fill="#DBDBDB" transform="translate(316,436)"/>
<path d="M0 0 C-1.07401108 2.91517292 -1.77810176 4.77810176 -4 7 C-4.66 7 -5.32 7 -6 7 C-5.39816251 4.97954558 -4.72693904 2.97888961 -4 1 C-2 0 -2 0 0 0 Z " fill="#0E0E0C" transform="translate(307,424)"/>
<path d="M0 0 C1.65 0.33 3.3 0.66 5 1 C4.01 1.66 3.02 2.32 2 3 C-0.38277529 5.09684226 -1.70323987 7.1072274 -3 10 C-3.36923077 4.58461538 -3.36923077 4.58461538 -1.5 1.625 C-1.005 1.08875 -0.51 0.5525 0 0 Z " fill="#C7E3B1" transform="translate(274,496)"/>
<path d="M0 0 C0.33 0 0.66 0 1 0 C1.36923077 5.41538462 1.36923077 5.41538462 -0.5 8.375 C-0.995 8.91125 -1.49 9.4475 -2 10 C-2.1953125 3.9453125 -2.1953125 3.9453125 -2 2 C-1.34 1.34 -0.68 0.68 0 0 Z " fill="#6BB232" transform="translate(206,484)"/>
<path d="M0 0 C0.33 0 0.66 0 1 0 C1.66 3.3 2.32 6.6 3 10 C1.68 10.99 0.36 11.98 -1 13 C-0.67 8.71 -0.34 4.42 0 0 Z " fill="#D4ECC0" transform="translate(277,481)"/>
<path d="M0 0 C0.66 0.33 1.32 0.66 2 1 C0.02 3.97 0.02 3.97 -2 7 C-3 6 -4 5 -5 4 C-5 3.34 -5 2.68 -5 2 C-2.625 0.9375 -2.625 0.9375 0 0 Z " fill="#AAC890" transform="translate(242,463)"/>
<path d="M0 0 C1.98 0 3.96 0 6 0 C4.515 2.475 4.515 2.475 3 5 C1.5 3.625 1.5 3.625 0 2 C0 1.34 0 0.68 0 0 Z " fill="#76B940" transform="translate(304,458)"/>
<path d="M0 0 C0.66666667 2.66666667 1.33333333 5.33333333 2 8 C0.68 8.33 -0.64 8.66 -2 9 C-1.125 2.25 -1.125 2.25 0 0 Z " fill="#949493" transform="translate(245,435)"/>
<path d="M0 0 C3.36720387 1.39332574 4.9859524 2.9789286 7 6 C6.01 6 5.02 6 4 6 C0 1.54285714 0 1.54285714 0 0 Z " fill="#80BF4A" transform="translate(219,530)"/>
<path d="M0 0 C0.598125 0.20625 1.19625 0.4125 1.8125 0.625 C0.1625 1.945 -1.4875 3.265 -3.1875 4.625 C-3.8475 3.635 -4.5075 2.645 -5.1875 1.625 C-2.1875 -0.375 -2.1875 -0.375 0 0 Z " fill="#80B852" transform="translate(302.1875,516.375)"/>
<path d="M0 0 C0 0.99 0 1.98 0 3 C-2 4.6875 -2 4.6875 -4 6 C-4.66 4.35 -5.32 2.7 -6 1 C-5.38125 1.20625 -4.7625 1.4125 -4.125 1.625 C-3.073125 1.810625 -3.073125 1.810625 -2 2 C-1.34 1.34 -0.68 0.68 0 0 Z " fill="#4F4E4C" transform="translate(319,431)"/>
<path d="M0 0 C0.66 0 1.32 0 2 0 C0.73058503 3.91402949 -0.51167694 5.79072873 -4 8 C-2.87548273 5.0280615 -1.77706209 2.66559313 0 0 Z " fill="#DEDEDD" transform="translate(276,431)"/>
<path d="M0 0 C0.33 0.66 0.66 1.32 1 2 C0.67 2.66 0.34 3.32 0 4 C-0.66 3.67 -1.32 3.34 -2 3 C-1.34 2.01 -0.68 1.02 0 0 Z " fill="#050404" transform="translate(355,431)"/>
<path d="M0 0 C0 0.99 0 1.98 0 3 C-0.99 3.495 -0.99 3.495 -2 4 C-1.34 2.68 -0.68 1.36 0 0 Z " fill="#090707" transform="translate(324,425)"/>
<path d="M0 0 C0.33 0.99 0.66 1.98 1 3 C0.01 3.495 0.01 3.495 -1 4 C-0.67 2.68 -0.34 1.36 0 0 Z " fill="#080706" transform="translate(350,429)"/>
<path d="M0 0 C1 4 1 4 1 4 Z " fill="#080704" transform="translate(278,418)"/>
<path d="" fill="#0A0A07" transform="translate(0,0)"/>
<path d="" fill="#121011" transform="translate(0,0)"/>
<path d="" fill="#090508" transform="translate(0,0)"/>
<path d="" fill="#040502" transform="translate(0,0)"/>
<path d="" fill="#121011" transform="translate(0,0)"/>
</svg>
